# xmcd CD database file
#
# Track frame offsets:
#	180
#	17640
#	35345
#	45633
#	65217
#	83046
#	107435
#	125948
#	144667
#	162465
#
# Disc length: 2442 seconds
#
# Revision: 1
# Processed by: cddbd v1.5.2PL0 Copyright (c) Steve Scherf et al.
# Submitted via: CDex 1.70beta2
#
DISCID=8a09880a
DTITLE=Various Artist - Into the Groove Vol11
DYEAR=1997
DGENRE=Rap
TTITLE0=Passi - L'engreneur
TTITLE1=Tha alkaholiks - Aww shit!
TTITLE2=Common - Invocation
TTITLE3=Big Jaz feat Jay-Z Sauce money and Tone hooker - Foundation
TTITLE4=Funky DL Versatile E- 20-20-8-8
TTITLE5=Weapon of choice - Glo in da' dark
TTITLE6=N.A.P feat Faf la rage - 5 ans de répit
TTITLE7=La harissa - Bientot l'album
TTITLE8=Lord kossity - Laches ton micro
TTITLE9=Human spirit - Les indiens
EXTD=YEAR: 1997
EXTT0=
EXTT1=
EXTT2=
EXTT3=
EXTT4=
EXTT5=
EXTT6=
EXTT7=
EXTT8=
EXTT9=
PLAYORDER=
